<mxfile host="app.diagrams.net" modified="2023-06-25T23:49:12.031Z" agent="Mozilla/5.0 (X11; Linux x86_64; rv:109.0) Gecko/20100101 Firefox/114.0" etag="Obd3pHzWynVmBg84sDKo" version="21.5.0" type="github">
  <diagram id="C5RBs43oDa-KdzZeNtuy" name="Page-1">
    <mxGraphModel dx="2294" dy="2161" grid="1" gridSize="10" guides="1" tooltips="1" connect="1" arrows="1" fold="1" page="1" pageScale="1" pageWidth="827" pageHeight="1169" math="0" shadow="0">
      <root>
        <mxCell id="WIyWlLk6GJQsqaUBKTNV-0" />
        <mxCell id="WIyWlLk6GJQsqaUBKTNV-1" parent="WIyWlLk6GJQsqaUBKTNV-0" />
        <mxCell id="IltljHVZWHLLgp4Dg02v-0" style="edgeStyle=none;curved=1;rounded=0;orthogonalLoop=1;jettySize=auto;html=1;entryX=0;entryY=0.5;entryDx=0;entryDy=0;fontFamily=Helvetica;fontSize=12;fontColor=default;endArrow=none;endFill=0;startSize=26;endSize=14;sourcePerimeterSpacing=8;targetPerimeterSpacing=8;strokeWidth=2;exitX=0.996;exitY=0.256;exitDx=0;exitDy=0;exitPerimeter=0;" edge="1" parent="WIyWlLk6GJQsqaUBKTNV-1" source="IltljHVZWHLLgp4Dg02v-130">
          <mxGeometry relative="1" as="geometry">
            <mxPoint x="150" y="-659" as="sourcePoint" />
            <mxPoint x="420" y="-659" as="targetPoint" />
          </mxGeometry>
        </mxCell>
        <mxCell id="IltljHVZWHLLgp4Dg02v-1" value="&lt;b style=&quot;font-size: 20px;&quot;&gt;1..*&lt;/b&gt;" style="edgeLabel;html=1;align=center;verticalAlign=middle;resizable=0;points=[];fontSize=20;labelBackgroundColor=none;" vertex="1" connectable="0" parent="WIyWlLk6GJQsqaUBKTNV-1">
          <mxGeometry x="399.99896697327404" y="-669.9979210247855" as="geometry">
            <mxPoint x="-6" y="-6" as="offset" />
          </mxGeometry>
        </mxCell>
        <mxCell id="IltljHVZWHLLgp4Dg02v-2" value="&lt;b style=&quot;font-size: 20px;&quot;&gt;1..*&lt;/b&gt;" style="edgeLabel;html=1;align=center;verticalAlign=middle;resizable=0;points=[];fontSize=20;labelBackgroundColor=none;" vertex="1" connectable="0" parent="WIyWlLk6GJQsqaUBKTNV-1">
          <mxGeometry x="159.99896697327404" y="-680.4979210247855" as="geometry">
            <mxPoint x="-2" y="4" as="offset" />
          </mxGeometry>
        </mxCell>
        <mxCell id="IltljHVZWHLLgp4Dg02v-3" value="Role" style="swimlane;fontStyle=1;align=center;verticalAlign=top;childLayout=stackLayout;horizontal=1;startSize=26;horizontalStack=0;resizeParent=1;resizeLast=0;collapsible=1;marginBottom=0;rounded=0;shadow=0;strokeWidth=1;fontSize=16;" vertex="1" parent="WIyWlLk6GJQsqaUBKTNV-1">
          <mxGeometry x="420" y="-730" width="180" height="150" as="geometry">
            <mxRectangle x="340" y="380" width="170" height="26" as="alternateBounds" />
          </mxGeometry>
        </mxCell>
        <mxCell id="IltljHVZWHLLgp4Dg02v-4" value="- id : String" style="text;align=left;verticalAlign=top;spacingLeft=4;spacingRight=4;overflow=hidden;rotatable=0;points=[[0,0.5],[1,0.5]];portConstraint=eastwest;fontSize=15;" vertex="1" parent="IltljHVZWHLLgp4Dg02v-3">
          <mxGeometry y="26" width="180" height="30" as="geometry" />
        </mxCell>
        <mxCell id="IltljHVZWHLLgp4Dg02v-5" value="- title : String" style="text;align=left;verticalAlign=top;spacingLeft=4;spacingRight=4;overflow=hidden;rotatable=0;points=[[0,0.5],[1,0.5]];portConstraint=eastwest;fontSize=15;" vertex="1" parent="IltljHVZWHLLgp4Dg02v-3">
          <mxGeometry y="56" width="180" height="30" as="geometry" />
        </mxCell>
        <mxCell id="IltljHVZWHLLgp4Dg02v-6" value="- description : String" style="text;align=left;verticalAlign=top;spacingLeft=4;spacingRight=4;overflow=hidden;rotatable=0;points=[[0,0.5],[1,0.5]];portConstraint=eastwest;fontSize=15;" vertex="1" parent="IltljHVZWHLLgp4Dg02v-3">
          <mxGeometry y="86" width="180" height="30" as="geometry" />
        </mxCell>
        <mxCell id="IltljHVZWHLLgp4Dg02v-7" value="" style="line;html=1;strokeWidth=1;align=left;verticalAlign=middle;spacingTop=-1;spacingLeft=3;spacingRight=3;rotatable=0;labelPosition=right;points=[];portConstraint=eastwest;" vertex="1" parent="IltljHVZWHLLgp4Dg02v-3">
          <mxGeometry y="116" width="180" height="10" as="geometry" />
        </mxCell>
        <mxCell id="IltljHVZWHLLgp4Dg02v-8" value="Permission" style="swimlane;fontStyle=1;align=center;verticalAlign=top;childLayout=stackLayout;horizontal=1;startSize=26;horizontalStack=0;resizeParent=1;resizeLast=0;collapsible=1;marginBottom=0;rounded=0;shadow=0;strokeWidth=1;fontSize=16;" vertex="1" parent="WIyWlLk6GJQsqaUBKTNV-1">
          <mxGeometry x="810" y="-730" width="180" height="150" as="geometry">
            <mxRectangle x="340" y="380" width="170" height="26" as="alternateBounds" />
          </mxGeometry>
        </mxCell>
        <mxCell id="IltljHVZWHLLgp4Dg02v-9" value="- ID : Int" style="text;align=left;verticalAlign=top;spacingLeft=4;spacingRight=4;overflow=hidden;rotatable=0;points=[[0,0.5],[1,0.5]];portConstraint=eastwest;fontSize=15;" vertex="1" parent="IltljHVZWHLLgp4Dg02v-8">
          <mxGeometry y="26" width="180" height="30" as="geometry" />
        </mxCell>
        <mxCell id="IltljHVZWHLLgp4Dg02v-10" value="- scope : String" style="text;align=left;verticalAlign=top;spacingLeft=4;spacingRight=4;overflow=hidden;rotatable=0;points=[[0,0.5],[1,0.5]];portConstraint=eastwest;fontSize=15;" vertex="1" parent="IltljHVZWHLLgp4Dg02v-8">
          <mxGeometry y="56" width="180" height="30" as="geometry" />
        </mxCell>
        <mxCell id="IltljHVZWHLLgp4Dg02v-11" value="- description : String" style="text;align=left;verticalAlign=top;spacingLeft=4;spacingRight=4;overflow=hidden;rotatable=0;points=[[0,0.5],[1,0.5]];portConstraint=eastwest;fontSize=15;" vertex="1" parent="IltljHVZWHLLgp4Dg02v-8">
          <mxGeometry y="86" width="180" height="30" as="geometry" />
        </mxCell>
        <mxCell id="IltljHVZWHLLgp4Dg02v-12" value="" style="line;html=1;strokeWidth=1;align=left;verticalAlign=middle;spacingTop=-1;spacingLeft=3;spacingRight=3;rotatable=0;labelPosition=right;points=[];portConstraint=eastwest;" vertex="1" parent="IltljHVZWHLLgp4Dg02v-8">
          <mxGeometry y="116" width="180" height="10" as="geometry" />
        </mxCell>
        <mxCell id="IltljHVZWHLLgp4Dg02v-13" style="edgeStyle=none;curved=1;rounded=0;orthogonalLoop=1;jettySize=auto;html=1;exitX=1;exitY=0.5;exitDx=0;exitDy=0;entryX=0;entryY=0.5;entryDx=0;entryDy=0;fontFamily=Helvetica;fontSize=12;fontColor=default;endArrow=none;endFill=0;startSize=26;endSize=14;sourcePerimeterSpacing=8;targetPerimeterSpacing=8;strokeWidth=2;" edge="1" parent="WIyWlLk6GJQsqaUBKTNV-1" source="IltljHVZWHLLgp4Dg02v-5" target="IltljHVZWHLLgp4Dg02v-10">
          <mxGeometry relative="1" as="geometry" />
        </mxCell>
        <mxCell id="IltljHVZWHLLgp4Dg02v-14" value="&lt;b style=&quot;font-size: 20px;&quot;&gt;1..*&lt;/b&gt;" style="edgeLabel;html=1;align=center;verticalAlign=middle;resizable=0;points=[];fontSize=20;labelBackgroundColor=none;" vertex="1" connectable="0" parent="IltljHVZWHLLgp4Dg02v-13">
          <mxGeometry relative="1" as="geometry">
            <mxPoint x="-75" y="-14" as="offset" />
          </mxGeometry>
        </mxCell>
        <mxCell id="IltljHVZWHLLgp4Dg02v-15" value="&lt;b style=&quot;font-size: 20px;&quot;&gt;1..*&lt;/b&gt;" style="edgeLabel;html=1;align=center;verticalAlign=middle;resizable=0;points=[];fontSize=20;labelBackgroundColor=none;" vertex="1" connectable="0" parent="IltljHVZWHLLgp4Dg02v-13">
          <mxGeometry relative="1" as="geometry">
            <mxPoint x="90" y="-21" as="offset" />
          </mxGeometry>
        </mxCell>
        <mxCell id="IltljHVZWHLLgp4Dg02v-16" style="edgeStyle=none;curved=1;rounded=0;orthogonalLoop=1;jettySize=auto;html=1;endArrow=none;startSize=14;endSize=14;sourcePerimeterSpacing=8;targetPerimeterSpacing=8;strokeWidth=2;endFill=0;dashed=1;exitX=0.5;exitY=0;exitDx=0;exitDy=0;" edge="1" parent="WIyWlLk6GJQsqaUBKTNV-1" source="IltljHVZWHLLgp4Dg02v-17">
          <mxGeometry relative="1" as="geometry">
            <mxPoint x="311" y="-660" as="targetPoint" />
            <mxPoint x="310" y="-590" as="sourcePoint" />
          </mxGeometry>
        </mxCell>
        <mxCell id="IltljHVZWHLLgp4Dg02v-17" value="Assignation_role" style="swimlane;fontStyle=1;align=center;verticalAlign=top;childLayout=stackLayout;horizontal=1;startSize=26;horizontalStack=0;resizeParent=1;resizeLast=0;collapsible=1;marginBottom=0;rounded=0;shadow=0;strokeWidth=1;fontSize=16;" vertex="1" parent="WIyWlLk6GJQsqaUBKTNV-1">
          <mxGeometry x="220" y="-560" width="180" height="90" as="geometry">
            <mxRectangle x="340" y="380" width="170" height="26" as="alternateBounds" />
          </mxGeometry>
        </mxCell>
        <mxCell id="IltljHVZWHLLgp4Dg02v-18" value="Â " style="text;align=left;verticalAlign=top;spacingLeft=4;spacingRight=4;overflow=hidden;rotatable=0;points=[[0,0.5],[1,0.5]];portConstraint=eastwest;fontSize=14;" vertex="1" parent="IltljHVZWHLLgp4Dg02v-17">
          <mxGeometry y="26" width="180" height="30" as="geometry" />
        </mxCell>
        <mxCell id="IltljHVZWHLLgp4Dg02v-19" value="" style="line;html=1;strokeWidth=1;align=left;verticalAlign=middle;spacingTop=-1;spacingLeft=3;spacingRight=3;rotatable=0;labelPosition=right;points=[];portConstraint=eastwest;" vertex="1" parent="IltljHVZWHLLgp4Dg02v-17">
          <mxGeometry y="56" width="180" height="10" as="geometry" />
        </mxCell>
        <mxCell id="IltljHVZWHLLgp4Dg02v-20" value="Assignation_permission" style="swimlane;fontStyle=1;align=center;verticalAlign=top;childLayout=stackLayout;horizontal=1;startSize=26;horizontalStack=0;resizeParent=1;resizeLast=0;collapsible=1;marginBottom=0;rounded=0;shadow=0;strokeWidth=1;" vertex="1" parent="WIyWlLk6GJQsqaUBKTNV-1">
          <mxGeometry x="608" y="-560" width="180" height="90" as="geometry">
            <mxRectangle x="340" y="380" width="170" height="26" as="alternateBounds" />
          </mxGeometry>
        </mxCell>
        <mxCell id="IltljHVZWHLLgp4Dg02v-21" value="Â " style="text;align=left;verticalAlign=top;spacingLeft=4;spacingRight=4;overflow=hidden;rotatable=0;points=[[0,0.5],[1,0.5]];portConstraint=eastwest;fontSize=14;" vertex="1" parent="IltljHVZWHLLgp4Dg02v-20">
          <mxGeometry y="26" width="180" height="30" as="geometry" />
        </mxCell>
        <mxCell id="IltljHVZWHLLgp4Dg02v-22" value="" style="line;html=1;strokeWidth=1;align=left;verticalAlign=middle;spacingTop=-1;spacingLeft=3;spacingRight=3;rotatable=0;labelPosition=right;points=[];portConstraint=eastwest;" vertex="1" parent="IltljHVZWHLLgp4Dg02v-20">
          <mxGeometry y="56" width="180" height="10" as="geometry" />
        </mxCell>
        <mxCell id="IltljHVZWHLLgp4Dg02v-23" style="edgeStyle=none;curved=1;rounded=0;orthogonalLoop=1;jettySize=auto;html=1;endArrow=none;startSize=14;endSize=14;sourcePerimeterSpacing=8;targetPerimeterSpacing=8;strokeWidth=2;endFill=0;dashed=1;exitX=0.5;exitY=0;exitDx=0;exitDy=0;" edge="1" parent="WIyWlLk6GJQsqaUBKTNV-1" source="IltljHVZWHLLgp4Dg02v-20">
          <mxGeometry relative="1" as="geometry">
            <mxPoint x="642" y="-802" as="sourcePoint" />
            <mxPoint x="697" y="-660" as="targetPoint" />
          </mxGeometry>
        </mxCell>
        <mxCell id="IltljHVZWHLLgp4Dg02v-24" style="rounded=0;orthogonalLoop=1;jettySize=auto;html=1;strokeWidth=2;endArrow=none;endFill=0;startSize=14;endSize=14;sourcePerimeterSpacing=8;targetPerimeterSpacing=8;exitX=0.511;exitY=0.972;exitDx=0;exitDy=0;exitPerimeter=0;entryX=0.5;entryY=0;entryDx=0;entryDy=0;" edge="1" parent="WIyWlLk6GJQsqaUBKTNV-1" source="IltljHVZWHLLgp4Dg02v-30" target="IltljHVZWHLLgp4Dg02v-32">
          <mxGeometry relative="1" as="geometry">
            <mxPoint x="-209.5" y="30" as="targetPoint" />
          </mxGeometry>
        </mxCell>
        <mxCell id="IltljHVZWHLLgp4Dg02v-25" style="rounded=0;orthogonalLoop=1;jettySize=auto;html=1;strokeWidth=2;startArrow=none;startFill=0;endArrow=none;endFill=0;startSize=14;endSize=14;sourcePerimeterSpacing=8;targetPerimeterSpacing=8;exitX=0;exitY=0.5;exitDx=0;exitDy=0;entryX=1.001;entryY=0.003;entryDx=0;entryDy=0;entryPerimeter=0;" edge="1" parent="WIyWlLk6GJQsqaUBKTNV-1" source="IltljHVZWHLLgp4Dg02v-91" target="IltljHVZWHLLgp4Dg02v-55">
          <mxGeometry relative="1" as="geometry">
            <Array as="points" />
            <mxPoint x="330" y="438.4999999999998" as="sourcePoint" />
            <mxPoint x="160" y="439.5000000000002" as="targetPoint" />
          </mxGeometry>
        </mxCell>
        <mxCell id="IltljHVZWHLLgp4Dg02v-26" style="edgeStyle=orthogonalEdgeStyle;rounded=0;orthogonalLoop=1;jettySize=auto;html=1;exitX=0.5;exitY=0;exitDx=0;exitDy=0;strokeWidth=2;fontSize=14;endArrow=none;endFill=0;startSize=14;endSize=14;sourcePerimeterSpacing=8;targetPerimeterSpacing=8;" edge="1" parent="WIyWlLk6GJQsqaUBKTNV-1" source="IltljHVZWHLLgp4Dg02v-27">
          <mxGeometry relative="1" as="geometry">
            <mxPoint x="50" y="-460" as="targetPoint" />
            <Array as="points">
              <mxPoint x="-211" y="-400" />
              <mxPoint x="50" y="-400" />
            </Array>
          </mxGeometry>
        </mxCell>
        <mxCell id="IltljHVZWHLLgp4Dg02v-27" value="Donor" style="swimlane;fontStyle=1;align=center;verticalAlign=top;childLayout=stackLayout;horizontal=1;startSize=26;horizontalStack=0;resizeParent=1;resizeParentMax=0;resizeLast=0;collapsible=1;marginBottom=0;fontSize=14;" vertex="1" parent="WIyWlLk6GJQsqaUBKTNV-1">
          <mxGeometry x="-301" y="-320" width="180" height="86" as="geometry" />
        </mxCell>
        <mxCell id="IltljHVZWHLLgp4Dg02v-28" value="- id: String" style="text;strokeColor=none;fillColor=none;align=left;verticalAlign=top;spacingLeft=4;spacingRight=4;overflow=hidden;rotatable=0;points=[[0,0.5],[1,0.5]];portConstraint=eastwest;fontSize=14;" vertex="1" parent="IltljHVZWHLLgp4Dg02v-27">
          <mxGeometry y="26" width="180" height="26" as="geometry" />
        </mxCell>
        <mxCell id="IltljHVZWHLLgp4Dg02v-29" value="" style="line;strokeWidth=1;fillColor=none;align=left;verticalAlign=middle;spacingTop=-1;spacingLeft=3;spacingRight=3;rotatable=0;labelPosition=right;points=[];portConstraint=eastwest;strokeColor=inherit;" vertex="1" parent="IltljHVZWHLLgp4Dg02v-27">
          <mxGeometry y="52" width="180" height="8" as="geometry" />
        </mxCell>
        <mxCell id="IltljHVZWHLLgp4Dg02v-30" value="Â " style="text;strokeColor=none;fillColor=none;align=left;verticalAlign=top;spacingLeft=4;spacingRight=4;overflow=hidden;rotatable=0;points=[[0,0.5],[1,0.5]];portConstraint=eastwest;" vertex="1" parent="IltljHVZWHLLgp4Dg02v-27">
          <mxGeometry y="60" width="180" height="26" as="geometry" />
        </mxCell>
        <mxCell id="IltljHVZWHLLgp4Dg02v-31" style="rounded=0;orthogonalLoop=1;jettySize=auto;html=1;strokeWidth=2;startArrow=none;startFill=0;endArrow=none;endFill=0;startSize=14;endSize=14;sourcePerimeterSpacing=8;targetPerimeterSpacing=8;exitX=0.996;exitY=0.411;exitDx=0;exitDy=0;entryX=0;entryY=0.5;entryDx=0;entryDy=0;exitPerimeter=0;" edge="1" parent="WIyWlLk6GJQsqaUBKTNV-1" source="IltljHVZWHLLgp4Dg02v-34" target="IltljHVZWHLLgp4Dg02v-71">
          <mxGeometry relative="1" as="geometry">
            <mxPoint x="-49.5" y="105" as="targetPoint" />
          </mxGeometry>
        </mxCell>
        <mxCell id="IltljHVZWHLLgp4Dg02v-32" value="&lt;font style=&quot;font-size: 14px;&quot;&gt;&lt;b&gt;Blood_Group&lt;/b&gt;&lt;/font&gt;" style="swimlane;fontStyle=0;childLayout=stackLayout;horizontal=1;startSize=30;horizontalStack=0;resizeParent=1;resizeParentMax=0;resizeLast=0;collapsible=1;marginBottom=0;whiteSpace=wrap;html=1;fontSize=14;movable=1;resizable=1;rotatable=1;deletable=1;editable=1;connectable=1;" vertex="1" parent="WIyWlLk6GJQsqaUBKTNV-1">
          <mxGeometry x="-300" y="70" width="180" height="158" as="geometry" />
        </mxCell>
        <mxCell id="IltljHVZWHLLgp4Dg02v-33" value="&lt;font style=&quot;font-size: 15px;&quot;&gt;- id: String&lt;/font&gt;" style="text;strokeColor=none;fillColor=none;align=left;verticalAlign=middle;spacingLeft=4;spacingRight=4;overflow=hidden;points=[[0,0.5],[1,0.5]];portConstraint=eastwest;rotatable=1;whiteSpace=wrap;html=1;fontSize=15;movable=1;resizable=1;deletable=1;editable=1;connectable=1;" vertex="1" parent="IltljHVZWHLLgp4Dg02v-32">
          <mxGeometry y="30" width="180" height="30" as="geometry" />
        </mxCell>
        <mxCell id="IltljHVZWHLLgp4Dg02v-34" value="&lt;font style=&quot;font-size: 15px;&quot;&gt;- name : String&lt;/font&gt;" style="text;strokeColor=none;fillColor=none;align=left;verticalAlign=middle;spacingLeft=4;spacingRight=4;overflow=hidden;points=[[0,0.5],[1,0.5]];portConstraint=eastwest;rotatable=1;whiteSpace=wrap;html=1;fontSize=15;movable=1;resizable=1;deletable=1;editable=1;connectable=1;" vertex="1" parent="IltljHVZWHLLgp4Dg02v-32">
          <mxGeometry y="60" width="180" height="30" as="geometry" />
        </mxCell>
        <mxCell id="IltljHVZWHLLgp4Dg02v-35" value="&lt;font style=&quot;font-size: 15px;&quot;&gt;- description : String&lt;/font&gt;" style="text;strokeColor=none;fillColor=none;align=left;verticalAlign=middle;spacingLeft=4;spacingRight=4;overflow=hidden;points=[[0,0.5],[1,0.5]];portConstraint=eastwest;rotatable=1;whiteSpace=wrap;html=1;fontSize=15;movable=1;resizable=1;deletable=1;editable=1;connectable=1;" vertex="1" parent="IltljHVZWHLLgp4Dg02v-32">
          <mxGeometry y="90" width="180" height="30" as="geometry" />
        </mxCell>
        <mxCell id="IltljHVZWHLLgp4Dg02v-36" value="" style="line;strokeWidth=1;fillColor=none;align=left;verticalAlign=middle;spacingTop=-1;spacingLeft=3;spacingRight=3;rotatable=0;labelPosition=right;points=[];portConstraint=eastwest;strokeColor=inherit;" vertex="1" parent="IltljHVZWHLLgp4Dg02v-32">
          <mxGeometry y="120" width="180" height="8" as="geometry" />
        </mxCell>
        <mxCell id="IltljHVZWHLLgp4Dg02v-37" value="&amp;nbsp;" style="text;strokeColor=none;fillColor=none;align=left;verticalAlign=middle;spacingLeft=4;spacingRight=4;overflow=hidden;points=[[0,0.5],[1,0.5]];portConstraint=eastwest;rotatable=1;whiteSpace=wrap;html=1;fontSize=15;movable=1;resizable=1;deletable=1;editable=1;connectable=1;" vertex="1" parent="IltljHVZWHLLgp4Dg02v-32">
          <mxGeometry y="128" width="180" height="30" as="geometry" />
        </mxCell>
        <mxCell id="IltljHVZWHLLgp4Dg02v-38" value="&lt;b style=&quot;font-size: 20px;&quot;&gt;1..*&lt;/b&gt;" style="edgeLabel;html=1;align=center;verticalAlign=middle;resizable=0;points=[];fontSize=20;labelBackgroundColor=none;" vertex="1" connectable="0" parent="WIyWlLk6GJQsqaUBKTNV-1">
          <mxGeometry x="-188.4980581559488" y="-209.9982387532532" as="geometry">
            <mxPoint x="2" y="-2" as="offset" />
          </mxGeometry>
        </mxCell>
        <mxCell id="IltljHVZWHLLgp4Dg02v-39" value="&lt;b style=&quot;font-size: 20px;&quot;&gt;1..1&lt;/b&gt;" style="edgeLabel;html=1;align=center;verticalAlign=middle;resizable=0;points=[];fontSize=20;labelBackgroundColor=none;" vertex="1" connectable="0" parent="WIyWlLk6GJQsqaUBKTNV-1">
          <mxGeometry x="-193.4980581559488" y="50.00176124674681" as="geometry">
            <mxPoint x="7" as="offset" />
          </mxGeometry>
        </mxCell>
        <mxCell id="IltljHVZWHLLgp4Dg02v-40" style="rounded=0;orthogonalLoop=1;jettySize=auto;html=1;strokeWidth=2;startArrow=none;startFill=0;endArrow=none;endFill=0;startSize=14;endSize=14;sourcePerimeterSpacing=8;targetPerimeterSpacing=8;exitX=0.5;exitY=1;exitDx=0;exitDy=0;entryX=0.5;entryY=0;entryDx=0;entryDy=0;" edge="1" parent="WIyWlLk6GJQsqaUBKTNV-1" source="IltljHVZWHLLgp4Dg02v-42" target="IltljHVZWHLLgp4Dg02v-59">
          <mxGeometry relative="1" as="geometry">
            <mxPoint x="58" y="-140" as="targetPoint" />
          </mxGeometry>
        </mxCell>
        <mxCell id="IltljHVZWHLLgp4Dg02v-41" style="rounded=0;orthogonalLoop=1;jettySize=auto;html=1;strokeWidth=2;startArrow=none;startFill=0;endArrow=block;endFill=0;startSize=14;endSize=14;sourcePerimeterSpacing=8;targetPerimeterSpacing=8;exitX=0.5;exitY=0;exitDx=0;exitDy=0;entryX=0.498;entryY=1.095;entryDx=0;entryDy=0;entryPerimeter=0;" edge="1" parent="WIyWlLk6GJQsqaUBKTNV-1" source="IltljHVZWHLLgp4Dg02v-42" target="IltljHVZWHLLgp4Dg02v-136">
          <mxGeometry relative="1" as="geometry">
            <mxPoint x="10" y="-410" as="targetPoint" />
          </mxGeometry>
        </mxCell>
        <mxCell id="IltljHVZWHLLgp4Dg02v-42" value="Hospital Manager" style="swimlane;fontStyle=1;align=center;verticalAlign=top;childLayout=stackLayout;horizontal=1;startSize=26;horizontalStack=0;resizeParent=1;resizeParentMax=0;resizeLast=0;collapsible=1;marginBottom=0;fontSize=14;" vertex="1" parent="WIyWlLk6GJQsqaUBKTNV-1">
          <mxGeometry x="-39" y="-320" width="180" height="86" as="geometry" />
        </mxCell>
        <mxCell id="IltljHVZWHLLgp4Dg02v-43" value="- id: String" style="text;strokeColor=none;fillColor=none;align=left;verticalAlign=top;spacingLeft=4;spacingRight=4;overflow=hidden;rotatable=0;points=[[0,0.5],[1,0.5]];portConstraint=eastwest;fontSize=15;" vertex="1" parent="IltljHVZWHLLgp4Dg02v-42">
          <mxGeometry y="26" width="180" height="26" as="geometry" />
        </mxCell>
        <mxCell id="IltljHVZWHLLgp4Dg02v-44" value="" style="line;strokeWidth=1;fillColor=none;align=left;verticalAlign=middle;spacingTop=-1;spacingLeft=3;spacingRight=3;rotatable=0;labelPosition=right;points=[];portConstraint=eastwest;strokeColor=inherit;" vertex="1" parent="IltljHVZWHLLgp4Dg02v-42">
          <mxGeometry y="52" width="180" height="8" as="geometry" />
        </mxCell>
        <mxCell id="IltljHVZWHLLgp4Dg02v-45" value="Â " style="text;strokeColor=none;fillColor=none;align=left;verticalAlign=top;spacingLeft=4;spacingRight=4;overflow=hidden;rotatable=0;points=[[0,0.5],[1,0.5]];portConstraint=eastwest;fontSize=20;" vertex="1" parent="IltljHVZWHLLgp4Dg02v-42">
          <mxGeometry y="60" width="180" height="26" as="geometry" />
        </mxCell>
        <mxCell id="IltljHVZWHLLgp4Dg02v-46" style="rounded=0;orthogonalLoop=1;jettySize=auto;html=1;strokeWidth=2;startArrow=none;startFill=0;endArrow=none;endFill=0;startSize=14;endSize=14;sourcePerimeterSpacing=8;targetPerimeterSpacing=8;entryX=1;entryY=0.5;entryDx=0;entryDy=0;edgeStyle=orthogonalEdgeStyle;exitX=0.49;exitY=0.995;exitDx=0;exitDy=0;exitPerimeter=0;" edge="1" parent="WIyWlLk6GJQsqaUBKTNV-1" source="IltljHVZWHLLgp4Dg02v-52" target="IltljHVZWHLLgp4Dg02v-71">
          <mxGeometry relative="1" as="geometry">
            <mxPoint x="310" y="-220" as="sourcePoint" />
            <mxPoint x="180.5" y="90" as="targetPoint" />
          </mxGeometry>
        </mxCell>
        <mxCell id="IltljHVZWHLLgp4Dg02v-47" style="edgeStyle=none;rounded=0;orthogonalLoop=1;jettySize=auto;html=1;strokeWidth=2;startArrow=none;startFill=0;endArrow=none;endFill=0;startSize=14;endSize=14;sourcePerimeterSpacing=8;targetPerimeterSpacing=8;exitX=1;exitY=0.5;exitDx=0;exitDy=0;entryX=0;entryY=0.38;entryDx=0;entryDy=0;entryPerimeter=0;" edge="1" parent="WIyWlLk6GJQsqaUBKTNV-1" source="IltljHVZWHLLgp4Dg02v-50" target="IltljHVZWHLLgp4Dg02v-80">
          <mxGeometry relative="1" as="geometry">
            <mxPoint x="720.5" y="-291" as="targetPoint" />
          </mxGeometry>
        </mxCell>
        <mxCell id="IltljHVZWHLLgp4Dg02v-48" style="edgeStyle=orthogonalEdgeStyle;rounded=0;orthogonalLoop=1;jettySize=auto;html=1;strokeWidth=2;fontSize=14;endArrow=none;endFill=0;startSize=14;endSize=14;sourcePerimeterSpacing=8;targetPerimeterSpacing=8;exitX=0.5;exitY=0;exitDx=0;exitDy=0;" edge="1" parent="WIyWlLk6GJQsqaUBKTNV-1" source="IltljHVZWHLLgp4Dg02v-49">
          <mxGeometry relative="1" as="geometry">
            <mxPoint x="310" y="-329" as="sourcePoint" />
            <mxPoint x="50" y="-481" as="targetPoint" />
            <Array as="points">
              <mxPoint x="310" y="-400" />
              <mxPoint x="50" y="-400" />
            </Array>
          </mxGeometry>
        </mxCell>
        <mxCell id="IltljHVZWHLLgp4Dg02v-49" value="Blood Bank Manager" style="swimlane;fontStyle=1;align=center;verticalAlign=top;childLayout=stackLayout;horizontal=1;startSize=26;horizontalStack=0;resizeParent=1;resizeParentMax=0;resizeLast=0;collapsible=1;marginBottom=0;fontSize=14;" vertex="1" parent="WIyWlLk6GJQsqaUBKTNV-1">
          <mxGeometry x="220" y="-320" width="180" height="86" as="geometry" />
        </mxCell>
        <mxCell id="IltljHVZWHLLgp4Dg02v-50" value="- id: String" style="text;strokeColor=none;fillColor=none;align=left;verticalAlign=top;spacingLeft=4;spacingRight=4;overflow=hidden;rotatable=0;points=[[0,0.5],[1,0.5]];portConstraint=eastwest;fontSize=15;" vertex="1" parent="IltljHVZWHLLgp4Dg02v-49">
          <mxGeometry y="26" width="180" height="26" as="geometry" />
        </mxCell>
        <mxCell id="IltljHVZWHLLgp4Dg02v-51" value="" style="line;strokeWidth=1;fillColor=none;align=left;verticalAlign=middle;spacingTop=-1;spacingLeft=3;spacingRight=3;rotatable=0;labelPosition=right;points=[];portConstraint=eastwest;strokeColor=inherit;" vertex="1" parent="IltljHVZWHLLgp4Dg02v-49">
          <mxGeometry y="52" width="180" height="8" as="geometry" />
        </mxCell>
        <mxCell id="IltljHVZWHLLgp4Dg02v-52" value="Â " style="text;strokeColor=none;fillColor=none;align=left;verticalAlign=top;spacingLeft=4;spacingRight=4;overflow=hidden;rotatable=0;points=[[0,0.5],[1,0.5]];portConstraint=eastwest;" vertex="1" parent="IltljHVZWHLLgp4Dg02v-49">
          <mxGeometry y="60" width="180" height="26" as="geometry" />
        </mxCell>
        <mxCell id="IltljHVZWHLLgp4Dg02v-53" value="&lt;b&gt;Blood_Donation&lt;/b&gt;" style="swimlane;fontStyle=0;childLayout=stackLayout;horizontal=1;startSize=30;horizontalStack=0;resizeParent=1;resizeParentMax=0;resizeLast=0;collapsible=1;marginBottom=0;whiteSpace=wrap;html=1;fontSize=14;movable=1;resizable=1;rotatable=1;deletable=1;editable=1;connectable=1;" vertex="1" parent="WIyWlLk6GJQsqaUBKTNV-1">
          <mxGeometry x="-39" y="384" width="180" height="150" as="geometry" />
        </mxCell>
        <mxCell id="IltljHVZWHLLgp4Dg02v-54" value="&lt;font style=&quot;font-size: 15px;&quot;&gt;- id: String&lt;/font&gt;" style="text;strokeColor=none;fillColor=none;align=left;verticalAlign=middle;spacingLeft=4;spacingRight=4;overflow=hidden;points=[[0,0.5],[1,0.5]];portConstraint=eastwest;rotatable=1;whiteSpace=wrap;html=1;fontSize=15;movable=1;resizable=1;deletable=1;editable=1;connectable=1;" vertex="1" parent="IltljHVZWHLLgp4Dg02v-53">
          <mxGeometry y="30" width="180" height="40" as="geometry" />
        </mxCell>
        <mxCell id="IltljHVZWHLLgp4Dg02v-55" value="&lt;font style=&quot;font-size: 15px;&quot;&gt;- donation_date : Date&lt;/font&gt;" style="text;strokeColor=none;fillColor=none;align=left;verticalAlign=middle;spacingLeft=4;spacingRight=4;overflow=hidden;points=[[0,0.5],[1,0.5]];portConstraint=eastwest;rotatable=1;whiteSpace=wrap;html=1;fontSize=15;movable=1;resizable=1;deletable=1;editable=1;connectable=1;" vertex="1" parent="IltljHVZWHLLgp4Dg02v-53">
          <mxGeometry y="70" width="180" height="40" as="geometry" />
        </mxCell>
        <mxCell id="IltljHVZWHLLgp4Dg02v-56" value="" style="line;strokeWidth=1;fillColor=none;align=left;verticalAlign=middle;spacingTop=-1;spacingLeft=3;spacingRight=3;rotatable=0;labelPosition=right;points=[];portConstraint=eastwest;strokeColor=inherit;" vertex="1" parent="IltljHVZWHLLgp4Dg02v-53">
          <mxGeometry y="110" width="180" height="8" as="geometry" />
        </mxCell>
        <mxCell id="IltljHVZWHLLgp4Dg02v-57" value="Â " style="text;strokeColor=none;fillColor=none;align=left;verticalAlign=top;spacingLeft=4;spacingRight=4;overflow=hidden;rotatable=1;points=[[0,0.5],[1,0.5]];portConstraint=eastwest;fontSize=15;movable=1;resizable=1;deletable=1;editable=1;connectable=1;" vertex="1" parent="IltljHVZWHLLgp4Dg02v-53">
          <mxGeometry y="118" width="180" height="32" as="geometry" />
        </mxCell>
        <mxCell id="IltljHVZWHLLgp4Dg02v-58" style="edgeStyle=none;rounded=0;orthogonalLoop=1;jettySize=auto;html=1;strokeWidth=2;startArrow=none;startFill=0;endArrow=none;endFill=0;startSize=14;endSize=14;sourcePerimeterSpacing=8;targetPerimeterSpacing=8;entryX=0.5;entryY=0;entryDx=0;entryDy=0;exitX=0.496;exitY=1.018;exitDx=0;exitDy=0;exitPerimeter=0;" edge="1" parent="WIyWlLk6GJQsqaUBKTNV-1" source="IltljHVZWHLLgp4Dg02v-63" target="IltljHVZWHLLgp4Dg02v-69">
          <mxGeometry relative="1" as="geometry">
            <mxPoint x="62" y="-40" as="sourcePoint" />
            <mxPoint x="62" y="30" as="targetPoint" />
          </mxGeometry>
        </mxCell>
        <mxCell id="IltljHVZWHLLgp4Dg02v-59" value="Blood_Request" style="swimlane;fontStyle=1;childLayout=stackLayout;horizontal=1;startSize=28;horizontalStack=0;resizeParent=1;resizeParentMax=0;resizeLast=0;collapsible=1;marginBottom=0;fontSize=14;movable=1;resizable=1;rotatable=1;deletable=1;editable=1;connectable=1;rounded=0;swimlaneLine=1;glass=0;shadow=0;verticalAlign=top;align=center;" vertex="1" parent="WIyWlLk6GJQsqaUBKTNV-1">
          <mxGeometry x="-39" y="-140" width="180" height="128" as="geometry" />
        </mxCell>
        <mxCell id="IltljHVZWHLLgp4Dg02v-60" value="- id: String" style="text;strokeColor=none;fillColor=none;align=left;verticalAlign=top;spacingLeft=4;spacingRight=4;overflow=hidden;rotatable=1;points=[[0,0.5],[1,0.5]];portConstraint=eastwest;fontSize=15;movable=1;resizable=1;deletable=1;editable=1;connectable=1;" vertex="1" parent="IltljHVZWHLLgp4Dg02v-59">
          <mxGeometry y="28" width="180" height="26" as="geometry" />
        </mxCell>
        <mxCell id="IltljHVZWHLLgp4Dg02v-61" value="- emergency : String" style="text;strokeColor=none;fillColor=none;align=left;verticalAlign=top;spacingLeft=4;spacingRight=4;overflow=hidden;rotatable=1;points=[[0,0.5],[1,0.5]];portConstraint=eastwest;fontSize=15;movable=1;resizable=1;deletable=1;editable=1;connectable=1;" vertex="1" parent="IltljHVZWHLLgp4Dg02v-59">
          <mxGeometry y="54" width="180" height="36" as="geometry" />
        </mxCell>
        <mxCell id="IltljHVZWHLLgp4Dg02v-62" value="" style="line;strokeWidth=1;fillColor=none;align=left;verticalAlign=middle;spacingTop=-1;spacingLeft=3;spacingRight=3;rotatable=0;labelPosition=right;points=[];portConstraint=eastwest;strokeColor=inherit;" vertex="1" parent="IltljHVZWHLLgp4Dg02v-59">
          <mxGeometry y="90" width="180" height="8" as="geometry" />
        </mxCell>
        <mxCell id="IltljHVZWHLLgp4Dg02v-63" value="&amp;nbsp;" style="text;strokeColor=none;fillColor=none;align=left;verticalAlign=middle;spacingLeft=4;spacingRight=4;overflow=hidden;points=[[0,0.5],[1,0.5]];portConstraint=eastwest;rotatable=1;whiteSpace=wrap;html=1;fontSize=15;movable=1;resizable=1;deletable=1;editable=1;connectable=1;" vertex="1" parent="IltljHVZWHLLgp4Dg02v-59">
          <mxGeometry y="98" width="180" height="30" as="geometry" />
        </mxCell>
        <mxCell id="IltljHVZWHLLgp4Dg02v-64" value="&lt;b style=&quot;font-size: 20px;&quot;&gt;1..1&lt;/b&gt;" style="edgeLabel;html=1;align=center;verticalAlign=middle;resizable=0;points=[];fontSize=20;labelBackgroundColor=none;" vertex="1" connectable="0" parent="WIyWlLk6GJQsqaUBKTNV-1">
          <mxGeometry x="66.0019418440512" y="-215.9982387532532" as="geometry">
            <mxPoint x="7" as="offset" />
          </mxGeometry>
        </mxCell>
        <mxCell id="IltljHVZWHLLgp4Dg02v-65" value="&lt;b style=&quot;font-size: 20px;&quot;&gt;0..*&lt;br style=&quot;font-size: 20px;&quot;&gt;&lt;/b&gt;" style="edgeLabel;html=1;align=center;verticalAlign=middle;resizable=0;points=[];fontSize=20;labelBackgroundColor=none;" vertex="1" connectable="0" parent="WIyWlLk6GJQsqaUBKTNV-1">
          <mxGeometry x="220.0019418440512" y="129.0017612467468" as="geometry">
            <mxPoint x="7" as="offset" />
          </mxGeometry>
        </mxCell>
        <mxCell id="IltljHVZWHLLgp4Dg02v-66" value="&lt;b style=&quot;font-size: 20px;&quot;&gt;1..*&lt;/b&gt;" style="edgeLabel;html=1;align=center;verticalAlign=middle;resizable=0;points=[];fontSize=20;labelBackgroundColor=none;" vertex="1" connectable="0" parent="WIyWlLk6GJQsqaUBKTNV-1">
          <mxGeometry x="330.0019418440512" y="-169.9982387532532" as="geometry">
            <mxPoint x="7" as="offset" />
          </mxGeometry>
        </mxCell>
        <mxCell id="IltljHVZWHLLgp4Dg02v-67" value="&lt;b style=&quot;font-size: 20px;&quot;&gt;0..*&lt;br style=&quot;font-size: 20px;&quot;&gt;&lt;/b&gt;" style="edgeLabel;html=1;align=center;verticalAlign=middle;resizable=0;points=[];fontSize=20;labelBackgroundColor=none;" vertex="1" connectable="0" parent="WIyWlLk6GJQsqaUBKTNV-1">
          <mxGeometry x="66.0019418440512" y="-159.9982387532532" as="geometry">
            <mxPoint x="7" as="offset" />
          </mxGeometry>
        </mxCell>
        <mxCell id="IltljHVZWHLLgp4Dg02v-68" style="edgeStyle=none;rounded=0;orthogonalLoop=1;jettySize=auto;html=1;strokeWidth=2;startArrow=none;startFill=0;endArrow=none;endFill=0;startSize=14;endSize=14;sourcePerimeterSpacing=8;targetPerimeterSpacing=8;exitX=0;exitY=0.5;exitDx=0;exitDy=0;dashed=1;" edge="1" parent="WIyWlLk6GJQsqaUBKTNV-1">
          <mxGeometry relative="1" as="geometry">
            <mxPoint x="305.0600000000004" y="-80" as="targetPoint" />
            <mxPoint x="400" y="-80" as="sourcePoint" />
          </mxGeometry>
        </mxCell>
        <mxCell id="IltljHVZWHLLgp4Dg02v-69" value="Blood_Unit_Request" style="swimlane;fontStyle=1;childLayout=stackLayout;horizontal=1;startSize=28;horizontalStack=0;resizeParent=1;resizeParentMax=0;resizeLast=0;collapsible=1;marginBottom=0;fontSize=14;movable=1;resizable=1;rotatable=1;deletable=1;editable=1;connectable=1;rounded=0;swimlaneLine=1;glass=0;shadow=0;verticalAlign=top;align=center;" vertex="1" parent="WIyWlLk6GJQsqaUBKTNV-1">
          <mxGeometry x="-40" y="70" width="180" height="238" as="geometry" />
        </mxCell>
        <mxCell id="IltljHVZWHLLgp4Dg02v-70" value="- id: String" style="text;strokeColor=none;fillColor=none;align=left;verticalAlign=top;spacingLeft=4;spacingRight=4;overflow=hidden;rotatable=1;points=[[0,0.5],[1,0.5]];portConstraint=eastwest;fontSize=15;movable=1;resizable=1;deletable=1;editable=1;connectable=1;" vertex="1" parent="IltljHVZWHLLgp4Dg02v-69">
          <mxGeometry y="28" width="180" height="26" as="geometry" />
        </mxCell>
        <mxCell id="IltljHVZWHLLgp4Dg02v-71" value="- quantity : Float" style="text;strokeColor=none;fillColor=none;align=left;verticalAlign=top;spacingLeft=4;spacingRight=4;overflow=hidden;rotatable=1;points=[[0,0.5],[1,0.5]];portConstraint=eastwest;fontSize=15;movable=1;resizable=1;deletable=1;editable=1;connectable=1;" vertex="1" parent="IltljHVZWHLLgp4Dg02v-69">
          <mxGeometry y="54" width="180" height="36" as="geometry" />
        </mxCell>
        <mxCell id="IltljHVZWHLLgp4Dg02v-72" value="- expirationDate : Date" style="text;strokeColor=none;fillColor=none;align=left;verticalAlign=top;spacingLeft=4;spacingRight=4;overflow=hidden;rotatable=1;points=[[0,0.5],[1,0.5]];portConstraint=eastwest;fontSize=15;movable=1;resizable=1;deletable=1;editable=1;connectable=1;" vertex="1" parent="IltljHVZWHLLgp4Dg02v-69">
          <mxGeometry y="90" width="180" height="36" as="geometry" />
        </mxCell>
        <mxCell id="IltljHVZWHLLgp4Dg02v-73" value="- remarks : String" style="text;strokeColor=none;fillColor=none;align=left;verticalAlign=top;spacingLeft=4;spacingRight=4;overflow=hidden;rotatable=1;points=[[0,0.5],[1,0.5]];portConstraint=eastwest;fontSize=15;movable=1;resizable=1;deletable=1;editable=1;connectable=1;" vertex="1" parent="IltljHVZWHLLgp4Dg02v-69">
          <mxGeometry y="126" width="180" height="36" as="geometry" />
        </mxCell>
        <mxCell id="IltljHVZWHLLgp4Dg02v-74" value="- status : String" style="text;strokeColor=none;fillColor=none;align=left;verticalAlign=top;spacingLeft=4;spacingRight=4;overflow=hidden;rotatable=1;points=[[0,0.5],[1,0.5]];portConstraint=eastwest;fontSize=15;movable=1;resizable=1;deletable=1;editable=1;connectable=1;" vertex="1" parent="IltljHVZWHLLgp4Dg02v-69">
          <mxGeometry y="162" width="180" height="36" as="geometry" />
        </mxCell>
        <mxCell id="IltljHVZWHLLgp4Dg02v-75" value="" style="line;strokeWidth=1;fillColor=none;align=left;verticalAlign=middle;spacingTop=-1;spacingLeft=3;spacingRight=3;rotatable=0;labelPosition=right;points=[];portConstraint=eastwest;strokeColor=inherit;" vertex="1" parent="IltljHVZWHLLgp4Dg02v-69">
          <mxGeometry y="198" width="180" height="8" as="geometry" />
        </mxCell>
        <mxCell id="IltljHVZWHLLgp4Dg02v-76" value="Â " style="text;strokeColor=none;fillColor=none;align=left;verticalAlign=top;spacingLeft=4;spacingRight=4;overflow=hidden;rotatable=1;points=[[0,0.5],[1,0.5]];portConstraint=eastwest;fontSize=15;movable=1;resizable=1;deletable=1;editable=1;connectable=1;" vertex="1" parent="IltljHVZWHLLgp4Dg02v-69">
          <mxGeometry y="206" width="180" height="32" as="geometry" />
        </mxCell>
        <mxCell id="IltljHVZWHLLgp4Dg02v-77" value="&lt;b style=&quot;font-size: 20px;&quot;&gt;1..*&lt;/b&gt;" style="edgeLabel;html=1;align=center;verticalAlign=middle;resizable=0;points=[];fontSize=20;labelBackgroundColor=none;" vertex="1" connectable="0" parent="WIyWlLk6GJQsqaUBKTNV-1">
          <mxGeometry x="64.0019418440512" y="57.00176124674681" as="geometry">
            <mxPoint x="7" as="offset" />
          </mxGeometry>
        </mxCell>
        <mxCell id="IltljHVZWHLLgp4Dg02v-78" style="edgeStyle=orthogonalEdgeStyle;rounded=0;orthogonalLoop=1;jettySize=auto;html=1;strokeWidth=2;startArrow=none;startFill=0;endArrow=none;endFill=0;startSize=14;endSize=14;sourcePerimeterSpacing=8;targetPerimeterSpacing=8;entryX=0;entryY=0.5;entryDx=0;entryDy=0;exitX=0.506;exitY=1.089;exitDx=0;exitDy=0;exitPerimeter=0;" edge="1" parent="WIyWlLk6GJQsqaUBKTNV-1" source="IltljHVZWHLLgp4Dg02v-88" target="IltljHVZWHLLgp4Dg02v-28">
          <mxGeometry relative="1" as="geometry">
            <Array as="points">
              <mxPoint x="828" y="-38" />
              <mxPoint x="828" y="320" />
              <mxPoint x="-350" y="320" />
              <mxPoint x="-350" y="-280" />
              <mxPoint x="-301" y="-280" />
            </Array>
            <mxPoint x="828" y="-10" as="sourcePoint" />
            <mxPoint x="-291.5" y="-260" as="targetPoint" />
          </mxGeometry>
        </mxCell>
        <mxCell id="IltljHVZWHLLgp4Dg02v-79" value="&lt;b&gt;Campaign&lt;/b&gt;" style="swimlane;fontStyle=0;childLayout=stackLayout;horizontal=1;startSize=30;horizontalStack=0;resizeParent=1;resizeParentMax=0;resizeLast=0;collapsible=1;marginBottom=0;whiteSpace=wrap;html=1;fontSize=14;movable=1;resizable=1;rotatable=1;deletable=1;editable=1;connectable=1;" vertex="1" parent="WIyWlLk6GJQsqaUBKTNV-1">
          <mxGeometry x="720.06" y="-321" width="215.44" height="280" as="geometry" />
        </mxCell>
        <mxCell id="IltljHVZWHLLgp4Dg02v-80" value="&lt;font style=&quot;font-size: 15px;&quot;&gt;- id: String&lt;/font&gt;" style="text;strokeColor=none;fillColor=none;align=left;verticalAlign=middle;spacingLeft=4;spacingRight=4;overflow=hidden;points=[[0,0.5],[1,0.5]];portConstraint=eastwest;rotatable=1;whiteSpace=wrap;html=1;fontSize=15;movable=1;resizable=1;deletable=1;editable=1;connectable=1;" vertex="1" parent="IltljHVZWHLLgp4Dg02v-79">
          <mxGeometry y="30" width="215.44" height="30" as="geometry" />
        </mxCell>
        <mxCell id="IltljHVZWHLLgp4Dg02v-81" value="&lt;font style=&quot;font-size: 15px;&quot;&gt;- name : String&lt;/font&gt;" style="text;strokeColor=none;fillColor=none;align=left;verticalAlign=middle;spacingLeft=4;spacingRight=4;overflow=hidden;points=[[0,0.5],[1,0.5]];portConstraint=eastwest;rotatable=1;whiteSpace=wrap;html=1;fontSize=15;movable=1;resizable=1;deletable=1;editable=1;connectable=1;" vertex="1" parent="IltljHVZWHLLgp4Dg02v-79">
          <mxGeometry y="60" width="215.44" height="30" as="geometry" />
        </mxCell>
        <mxCell id="IltljHVZWHLLgp4Dg02v-82" value="&lt;font style=&quot;font-size: 15px;&quot;&gt;- location : String&lt;/font&gt;" style="text;strokeColor=none;fillColor=none;align=left;verticalAlign=middle;spacingLeft=4;spacingRight=4;overflow=hidden;points=[[0,0.5],[1,0.5]];portConstraint=eastwest;rotatable=1;whiteSpace=wrap;html=1;fontSize=15;movable=1;resizable=1;deletable=1;editable=1;connectable=1;" vertex="1" parent="IltljHVZWHLLgp4Dg02v-79">
          <mxGeometry y="90" width="215.44" height="30" as="geometry" />
        </mxCell>
        <mxCell id="IltljHVZWHLLgp4Dg02v-83" value="&lt;font style=&quot;font-size: 17px;&quot;&gt;- latitude : String&lt;/font&gt;" style="text;strokeColor=none;fillColor=none;align=left;verticalAlign=middle;spacingLeft=4;spacingRight=4;overflow=hidden;points=[[0,0.5],[1,0.5]];portConstraint=eastwest;rotatable=1;whiteSpace=wrap;html=1;fontSize=17;movable=1;resizable=1;deletable=1;editable=1;connectable=1;" vertex="1" parent="IltljHVZWHLLgp4Dg02v-79">
          <mxGeometry y="120" width="215.44" height="30" as="geometry" />
        </mxCell>
        <mxCell id="IltljHVZWHLLgp4Dg02v-84" value="&lt;font style=&quot;font-size: 15px;&quot;&gt;- description : String&lt;/font&gt;" style="text;strokeColor=none;fillColor=none;align=left;verticalAlign=middle;spacingLeft=4;spacingRight=4;overflow=hidden;points=[[0,0.5],[1,0.5]];portConstraint=eastwest;rotatable=1;whiteSpace=wrap;html=1;fontSize=15;movable=1;resizable=1;deletable=1;editable=1;connectable=1;" vertex="1" parent="IltljHVZWHLLgp4Dg02v-79">
          <mxGeometry y="150" width="215.44" height="30" as="geometry" />
        </mxCell>
        <mxCell id="IltljHVZWHLLgp4Dg02v-85" value="&lt;font style=&quot;font-size: 15px;&quot;&gt;- start_date : Date&lt;/font&gt;" style="text;strokeColor=none;fillColor=none;align=left;verticalAlign=middle;spacingLeft=4;spacingRight=4;overflow=hidden;points=[[0,0.5],[1,0.5]];portConstraint=eastwest;rotatable=1;whiteSpace=wrap;html=1;fontSize=15;movable=1;resizable=1;deletable=1;editable=1;connectable=1;" vertex="1" parent="IltljHVZWHLLgp4Dg02v-79">
          <mxGeometry y="180" width="215.44" height="30" as="geometry" />
        </mxCell>
        <mxCell id="IltljHVZWHLLgp4Dg02v-86" value="&lt;font style=&quot;font-size: 15px;&quot;&gt;- end_date : Date&lt;/font&gt;" style="text;strokeColor=none;fillColor=none;align=left;verticalAlign=middle;spacingLeft=4;spacingRight=4;overflow=hidden;points=[[0,0.5],[1,0.5]];portConstraint=eastwest;rotatable=1;whiteSpace=wrap;html=1;fontSize=15;movable=1;resizable=1;deletable=1;editable=1;connectable=1;" vertex="1" parent="IltljHVZWHLLgp4Dg02v-79">
          <mxGeometry y="210" width="215.44" height="30" as="geometry" />
        </mxCell>
        <mxCell id="IltljHVZWHLLgp4Dg02v-87" value="" style="line;strokeWidth=1;fillColor=none;align=left;verticalAlign=middle;spacingTop=-1;spacingLeft=3;spacingRight=3;rotatable=0;labelPosition=right;points=[];portConstraint=eastwest;strokeColor=inherit;" vertex="1" parent="IltljHVZWHLLgp4Dg02v-79">
          <mxGeometry y="240" width="215.44" height="8" as="geometry" />
        </mxCell>
        <mxCell id="IltljHVZWHLLgp4Dg02v-88" value="Â " style="text;strokeColor=none;fillColor=none;align=left;verticalAlign=top;spacingLeft=4;spacingRight=4;overflow=hidden;rotatable=1;points=[[0,0.5],[1,0.5]];portConstraint=eastwest;fontSize=15;movable=1;resizable=1;deletable=1;editable=1;connectable=1;" vertex="1" parent="IltljHVZWHLLgp4Dg02v-79">
          <mxGeometry y="248" width="215.44" height="32" as="geometry" />
        </mxCell>
        <mxCell id="IltljHVZWHLLgp4Dg02v-89" value="Appointment" style="swimlane;fontStyle=1;childLayout=stackLayout;horizontal=1;startSize=26;horizontalStack=0;resizeParent=1;resizeParentMax=0;resizeLast=0;collapsible=1;marginBottom=0;fontSize=14;movable=1;resizable=1;rotatable=1;deletable=1;editable=1;connectable=1;" vertex="1" parent="WIyWlLk6GJQsqaUBKTNV-1">
          <mxGeometry x="400" y="380" width="180" height="258" as="geometry" />
        </mxCell>
        <mxCell id="IltljHVZWHLLgp4Dg02v-90" value="- Date : Date" style="text;strokeColor=none;fillColor=none;align=left;verticalAlign=top;spacingLeft=4;spacingRight=4;overflow=hidden;rotatable=1;points=[[0,0.5],[1,0.5]];portConstraint=eastwest;fontSize=15;movable=1;resizable=1;deletable=1;editable=1;connectable=1;" vertex="1" parent="IltljHVZWHLLgp4Dg02v-89">
          <mxGeometry y="26" width="180" height="32" as="geometry" />
        </mxCell>
        <mxCell id="IltljHVZWHLLgp4Dg02v-91" value="- description: String" style="text;strokeColor=none;fillColor=none;align=left;verticalAlign=top;spacingLeft=4;spacingRight=4;overflow=hidden;rotatable=1;points=[[0,0.5],[1,0.5]];portConstraint=eastwest;fontSize=15;movable=1;resizable=1;deletable=1;editable=1;connectable=1;" vertex="1" parent="IltljHVZWHLLgp4Dg02v-89">
          <mxGeometry y="58" width="180" height="32" as="geometry" />
        </mxCell>
        <mxCell id="IltljHVZWHLLgp4Dg02v-92" value="- isConfirmed : String" style="text;strokeColor=none;fillColor=none;align=left;verticalAlign=top;spacingLeft=4;spacingRight=4;overflow=hidden;rotatable=1;points=[[0,0.5],[1,0.5]];portConstraint=eastwest;fontSize=15;movable=1;resizable=1;deletable=1;editable=1;connectable=1;" vertex="1" parent="IltljHVZWHLLgp4Dg02v-89">
          <mxGeometry y="90" width="180" height="32" as="geometry" />
        </mxCell>
        <mxCell id="IltljHVZWHLLgp4Dg02v-93" value="- priority : String" style="text;strokeColor=none;fillColor=none;align=left;verticalAlign=top;spacingLeft=4;spacingRight=4;overflow=hidden;rotatable=1;points=[[0,0.5],[1,0.5]];portConstraint=eastwest;fontSize=15;movable=1;resizable=1;deletable=1;editable=1;connectable=1;" vertex="1" parent="IltljHVZWHLLgp4Dg02v-89">
          <mxGeometry y="122" width="180" height="32" as="geometry" />
        </mxCell>
        <mxCell id="IltljHVZWHLLgp4Dg02v-94" value="- status : String" style="text;strokeColor=none;fillColor=none;align=left;verticalAlign=top;spacingLeft=4;spacingRight=4;overflow=hidden;rotatable=1;points=[[0,0.5],[1,0.5]];portConstraint=eastwest;fontSize=15;movable=1;resizable=1;deletable=1;editable=1;connectable=1;" vertex="1" parent="IltljHVZWHLLgp4Dg02v-89">
          <mxGeometry y="154" width="180" height="32" as="geometry" />
        </mxCell>
        <mxCell id="IltljHVZWHLLgp4Dg02v-95" value="- qrCode : String" style="text;strokeColor=none;fillColor=none;align=left;verticalAlign=top;spacingLeft=4;spacingRight=4;overflow=hidden;rotatable=1;points=[[0,0.5],[1,0.5]];portConstraint=eastwest;fontSize=15;movable=1;resizable=1;deletable=1;editable=1;connectable=1;" vertex="1" parent="IltljHVZWHLLgp4Dg02v-89">
          <mxGeometry y="186" width="180" height="32" as="geometry" />
        </mxCell>
        <mxCell id="IltljHVZWHLLgp4Dg02v-96" value="" style="line;strokeWidth=1;fillColor=none;align=left;verticalAlign=middle;spacingTop=-1;spacingLeft=3;spacingRight=3;rotatable=0;labelPosition=right;points=[];portConstraint=eastwest;strokeColor=inherit;" vertex="1" parent="IltljHVZWHLLgp4Dg02v-89">
          <mxGeometry y="218" width="180" height="8" as="geometry" />
        </mxCell>
        <mxCell id="IltljHVZWHLLgp4Dg02v-97" value="Â " style="text;strokeColor=none;fillColor=none;align=left;verticalAlign=top;spacingLeft=4;spacingRight=4;overflow=hidden;rotatable=1;points=[[0,0.5],[1,0.5]];portConstraint=eastwest;fontSize=15;movable=1;resizable=1;deletable=1;editable=1;connectable=1;" vertex="1" parent="IltljHVZWHLLgp4Dg02v-89">
          <mxGeometry y="226" width="180" height="32" as="geometry" />
        </mxCell>
        <mxCell id="IltljHVZWHLLgp4Dg02v-98" value="&lt;b style=&quot;font-size: 20px;&quot;&gt;0..*&lt;br style=&quot;font-size: 20px;&quot;&gt;&lt;/b&gt;" style="edgeLabel;html=1;align=center;verticalAlign=middle;resizable=0;points=[];fontSize=20;labelBackgroundColor=none;" vertex="1" connectable="0" parent="WIyWlLk6GJQsqaUBKTNV-1">
          <mxGeometry x="840.0019418440513" y="-19.99823875325319" as="geometry">
            <mxPoint x="7" as="offset" />
          </mxGeometry>
        </mxCell>
        <mxCell id="IltljHVZWHLLgp4Dg02v-99" value="&lt;b&gt;&lt;font style=&quot;font-size: 20px;&quot;&gt;0..*&lt;/font&gt;&lt;br&gt;&lt;/b&gt;" style="edgeLabel;html=1;align=center;verticalAlign=middle;resizable=0;points=[];fontSize=14;labelBackgroundColor=none;" vertex="1" connectable="0" parent="WIyWlLk6GJQsqaUBKTNV-1">
          <mxGeometry x="-329.99805815594874" y="-299.9982387532532" as="geometry">
            <mxPoint x="7" as="offset" />
          </mxGeometry>
        </mxCell>
        <mxCell id="IltljHVZWHLLgp4Dg02v-100" value="&lt;b style=&quot;font-size: 20px;&quot;&gt;1..*&lt;/b&gt;" style="edgeLabel;html=1;align=center;verticalAlign=middle;resizable=0;points=[];fontSize=20;labelBackgroundColor=none;" vertex="1" connectable="0" parent="WIyWlLk6GJQsqaUBKTNV-1">
          <mxGeometry x="690.0019418440512" y="-299.9982387532532" as="geometry">
            <mxPoint x="1" y="-2" as="offset" />
          </mxGeometry>
        </mxCell>
        <mxCell id="IltljHVZWHLLgp4Dg02v-101" value="&lt;b style=&quot;font-size: 20px;&quot;&gt;1..1&lt;/b&gt;" style="edgeLabel;html=1;align=center;verticalAlign=middle;resizable=0;points=[];fontSize=20;labelBackgroundColor=none;" vertex="1" connectable="0" parent="WIyWlLk6GJQsqaUBKTNV-1">
          <mxGeometry x="430.0019418440512" y="-299.9982387532532" as="geometry">
            <mxPoint x="7" as="offset" />
          </mxGeometry>
        </mxCell>
        <mxCell id="IltljHVZWHLLgp4Dg02v-102" value="Organization" style="swimlane;fontStyle=1;align=center;verticalAlign=middle;childLayout=stackLayout;horizontal=1;startSize=30;horizontalStack=0;resizeParent=1;resizeLast=0;collapsible=1;marginBottom=0;rounded=0;shadow=0;strokeWidth=1;fontSize=16;movable=1;resizable=1;rotatable=1;deletable=1;editable=1;connectable=1;" vertex="1" parent="WIyWlLk6GJQsqaUBKTNV-1">
          <mxGeometry x="-650" y="-718" width="208.44" height="320" as="geometry">
            <mxRectangle x="-150" y="-400" width="160" height="26" as="alternateBounds" />
          </mxGeometry>
        </mxCell>
        <mxCell id="IltljHVZWHLLgp4Dg02v-103" value="- ID : Int" style="text;align=left;verticalAlign=top;spacingLeft=4;spacingRight=4;overflow=hidden;rotatable=1;points=[[0,0.5],[1,0.5]];portConstraint=eastwest;fontSize=15;movable=1;resizable=1;deletable=1;editable=1;connectable=1;" vertex="1" parent="IltljHVZWHLLgp4Dg02v-102">
          <mxGeometry y="30" width="208.44" height="26" as="geometry" />
        </mxCell>
        <mxCell id="IltljHVZWHLLgp4Dg02v-104" value="- phone : String" style="text;align=left;verticalAlign=top;spacingLeft=4;spacingRight=4;overflow=hidden;rotatable=1;points=[[0,0.5],[1,0.5]];portConstraint=eastwest;fontSize=15;movable=1;resizable=1;deletable=1;editable=1;connectable=1;" vertex="1" parent="IltljHVZWHLLgp4Dg02v-102">
          <mxGeometry y="56" width="208.44" height="26" as="geometry" />
        </mxCell>
        <mxCell id="IltljHVZWHLLgp4Dg02v-105" value="- address : String" style="text;align=left;verticalAlign=top;spacingLeft=4;spacingRight=4;overflow=hidden;rotatable=1;points=[[0,0.5],[1,0.5]];portConstraint=eastwest;fontSize=15;movable=1;resizable=1;deletable=1;editable=1;connectable=1;" vertex="1" parent="IltljHVZWHLLgp4Dg02v-102">
          <mxGeometry y="82" width="208.44" height="26" as="geometry" />
        </mxCell>
        <mxCell id="IltljHVZWHLLgp4Dg02v-106" value="- website: String" style="text;align=left;verticalAlign=top;spacingLeft=4;spacingRight=4;overflow=hidden;rotatable=1;points=[[0,0.5],[1,0.5]];portConstraint=eastwest;fontSize=15;movable=1;resizable=1;deletable=1;editable=1;connectable=1;" vertex="1" parent="IltljHVZWHLLgp4Dg02v-102">
          <mxGeometry y="108" width="208.44" height="26" as="geometry" />
        </mxCell>
        <mxCell id="IltljHVZWHLLgp4Dg02v-107" value="- description : String" style="text;align=left;verticalAlign=top;spacingLeft=4;spacingRight=4;overflow=hidden;rotatable=1;points=[[0,0.5],[1,0.5]];portConstraint=eastwest;fontSize=15;movable=1;resizable=1;deletable=1;editable=1;connectable=1;fontStyle=0" vertex="1" parent="IltljHVZWHLLgp4Dg02v-102">
          <mxGeometry y="134" width="208.44" height="26" as="geometry" />
        </mxCell>
        <mxCell id="IltljHVZWHLLgp4Dg02v-108" value="- logo : String" style="text;align=left;verticalAlign=top;spacingLeft=4;spacingRight=4;overflow=hidden;rotatable=1;points=[[0,0.5],[1,0.5]];portConstraint=eastwest;fontSize=15;movable=1;resizable=1;deletable=1;editable=1;connectable=1;" vertex="1" parent="IltljHVZWHLLgp4Dg02v-102">
          <mxGeometry y="160" width="208.44" height="26" as="geometry" />
        </mxCell>
        <mxCell id="IltljHVZWHLLgp4Dg02v-109" value="- workingHour : String" style="text;align=left;verticalAlign=top;spacingLeft=4;spacingRight=4;overflow=hidden;rotatable=1;points=[[0,0.5],[1,0.5]];portConstraint=eastwest;fontSize=15;movable=1;resizable=1;deletable=1;editable=1;connectable=1;" vertex="1" parent="IltljHVZWHLLgp4Dg02v-102">
          <mxGeometry y="186" width="208.44" height="26" as="geometry" />
        </mxCell>
        <mxCell id="IltljHVZWHLLgp4Dg02v-110" value="- status : String" style="text;align=left;verticalAlign=top;spacingLeft=4;spacingRight=4;overflow=hidden;rotatable=1;points=[[0,0.5],[1,0.5]];portConstraint=eastwest;fontSize=15;movable=1;resizable=1;deletable=1;editable=1;connectable=1;" vertex="1" parent="IltljHVZWHLLgp4Dg02v-102">
          <mxGeometry y="212" width="208.44" height="26" as="geometry" />
        </mxCell>
        <mxCell id="IltljHVZWHLLgp4Dg02v-111" value="- latitude : String" style="text;align=left;verticalAlign=top;spacingLeft=4;spacingRight=4;overflow=hidden;rotatable=1;points=[[0,0.5],[1,0.5]];portConstraint=eastwest;fontSize=15;movable=1;resizable=1;deletable=1;editable=1;connectable=1;" vertex="1" parent="IltljHVZWHLLgp4Dg02v-102">
          <mxGeometry y="238" width="208.44" height="26" as="geometry" />
        </mxCell>
        <mxCell id="IltljHVZWHLLgp4Dg02v-112" value="- longitude : String" style="text;align=left;verticalAlign=top;spacingLeft=4;spacingRight=4;overflow=hidden;rotatable=1;points=[[0,0.5],[1,0.5]];portConstraint=eastwest;fontSize=15;movable=1;resizable=1;deletable=1;editable=1;connectable=1;" vertex="1" parent="IltljHVZWHLLgp4Dg02v-102">
          <mxGeometry y="264" width="208.44" height="26" as="geometry" />
        </mxCell>
        <mxCell id="IltljHVZWHLLgp4Dg02v-113" value="- contact : String" style="text;align=left;verticalAlign=top;spacingLeft=4;spacingRight=4;overflow=hidden;rotatable=1;points=[[0,0.5],[1,0.5]];portConstraint=eastwest;fontSize=15;movable=1;resizable=1;deletable=1;editable=1;connectable=1;" vertex="1" parent="IltljHVZWHLLgp4Dg02v-102">
          <mxGeometry y="290" width="208.44" height="26" as="geometry" />
        </mxCell>
        <mxCell id="IltljHVZWHLLgp4Dg02v-114" value="" style="endArrow=none;html=1;rounded=0;startSize=14;endSize=14;sourcePerimeterSpacing=8;targetPerimeterSpacing=8;curved=1;entryX=-0.001;entryY=0.247;entryDx=0;entryDy=0;entryPerimeter=0;exitX=0.999;exitY=0.01;exitDx=0;exitDy=0;exitPerimeter=0;strokeWidth=2;" edge="1" parent="WIyWlLk6GJQsqaUBKTNV-1" source="IltljHVZWHLLgp4Dg02v-104" target="IltljHVZWHLLgp4Dg02v-130">
          <mxGeometry width="50" height="50" relative="1" as="geometry">
            <mxPoint x="-430" y="-660" as="sourcePoint" />
            <mxPoint x="-42.56" y="-660" as="targetPoint" />
          </mxGeometry>
        </mxCell>
        <mxCell id="IltljHVZWHLLgp4Dg02v-115" style="rounded=0;orthogonalLoop=1;jettySize=auto;html=1;endArrow=block;startSize=14;endSize=14;sourcePerimeterSpacing=8;targetPerimeterSpacing=8;endFill=0;strokeWidth=2;edgeStyle=elbowEdgeStyle;elbow=vertical;" edge="1" parent="WIyWlLk6GJQsqaUBKTNV-1">
          <mxGeometry relative="1" as="geometry">
            <Array as="points">
              <mxPoint x="-562" y="-319" />
              <mxPoint x="-523" y="-315" />
            </Array>
            <mxPoint x="-706" y="-239" as="sourcePoint" />
            <mxPoint x="-552" y="-399" as="targetPoint" />
          </mxGeometry>
        </mxCell>
        <mxCell id="IltljHVZWHLLgp4Dg02v-116" value="Hospital" style="swimlane;fontStyle=1;align=center;verticalAlign=middle;childLayout=stackLayout;horizontal=1;startSize=30;horizontalStack=0;resizeParent=1;resizeLast=0;collapsible=1;marginBottom=0;rounded=0;shadow=0;strokeWidth=1;fontSize=16;movable=1;resizable=1;rotatable=1;deletable=1;editable=1;connectable=1;" vertex="1" parent="WIyWlLk6GJQsqaUBKTNV-1">
          <mxGeometry x="-790" y="-240" width="170" height="100" as="geometry">
            <mxRectangle x="-150" y="-400" width="160" height="26" as="alternateBounds" />
          </mxGeometry>
        </mxCell>
        <mxCell id="IltljHVZWHLLgp4Dg02v-117" value="- id: String" style="text;align=left;verticalAlign=top;spacingLeft=4;spacingRight=4;overflow=hidden;rotatable=1;points=[[0,0.5],[1,0.5]];portConstraint=eastwest;fontSize=15;movable=1;resizable=1;deletable=1;editable=1;connectable=1;" vertex="1" parent="IltljHVZWHLLgp4Dg02v-116">
          <mxGeometry y="30" width="170" height="30" as="geometry" />
        </mxCell>
        <mxCell id="IltljHVZWHLLgp4Dg02v-118" value="" style="line;strokeWidth=1;fillColor=none;align=left;verticalAlign=middle;spacingTop=-1;spacingLeft=3;spacingRight=3;rotatable=0;labelPosition=right;points=[];portConstraint=eastwest;strokeColor=inherit;" vertex="1" parent="IltljHVZWHLLgp4Dg02v-116">
          <mxGeometry y="60" width="170" height="8" as="geometry" />
        </mxCell>
        <mxCell id="IltljHVZWHLLgp4Dg02v-119" style="edgeStyle=orthogonalEdgeStyle;rounded=0;orthogonalLoop=1;jettySize=auto;html=1;strokeWidth=2;startArrow=none;startFill=0;endArrow=none;endFill=0;startSize=14;endSize=14;sourcePerimeterSpacing=8;targetPerimeterSpacing=8;" edge="1" parent="WIyWlLk6GJQsqaUBKTNV-1">
          <mxGeometry relative="1" as="geometry">
            <mxPoint x="-550" y="-320" as="targetPoint" />
            <Array as="points">
              <mxPoint x="-430" y="-320" />
              <mxPoint x="-550" y="-320" />
            </Array>
            <mxPoint x="-430" y="-240" as="sourcePoint" />
          </mxGeometry>
        </mxCell>
        <mxCell id="IltljHVZWHLLgp4Dg02v-120" value="Blood_bank" style="swimlane;fontStyle=1;align=center;verticalAlign=middle;childLayout=stackLayout;horizontal=1;startSize=30;horizontalStack=0;resizeParent=1;resizeLast=0;collapsible=1;marginBottom=0;rounded=0;shadow=0;strokeWidth=1;fontSize=16;movable=1;resizable=1;rotatable=1;deletable=1;editable=1;connectable=1;" vertex="1" parent="WIyWlLk6GJQsqaUBKTNV-1">
          <mxGeometry x="-538" y="-240" width="170" height="100" as="geometry">
            <mxRectangle x="-150" y="-400" width="160" height="26" as="alternateBounds" />
          </mxGeometry>
        </mxCell>
        <mxCell id="IltljHVZWHLLgp4Dg02v-121" value="- id: String" style="text;align=left;verticalAlign=top;spacingLeft=4;spacingRight=4;overflow=hidden;rotatable=1;points=[[0,0.5],[1,0.5]];portConstraint=eastwest;fontSize=15;movable=1;resizable=1;deletable=1;editable=1;connectable=1;" vertex="1" parent="IltljHVZWHLLgp4Dg02v-120">
          <mxGeometry y="30" width="170" height="26" as="geometry" />
        </mxCell>
        <mxCell id="IltljHVZWHLLgp4Dg02v-122" value="" style="line;strokeWidth=1;fillColor=none;align=left;verticalAlign=middle;spacingTop=-1;spacingLeft=3;spacingRight=3;rotatable=0;labelPosition=right;points=[];portConstraint=eastwest;strokeColor=inherit;" vertex="1" parent="IltljHVZWHLLgp4Dg02v-120">
          <mxGeometry y="56" width="170" height="8" as="geometry" />
        </mxCell>
        <mxCell id="IltljHVZWHLLgp4Dg02v-123" value="" style="endArrow=none;dashed=1;html=1;strokeWidth=2;exitX=0.5;exitY=0;exitDx=0;exitDy=0;" edge="1" parent="WIyWlLk6GJQsqaUBKTNV-1" source="IltljHVZWHLLgp4Dg02v-89">
          <mxGeometry width="50" height="50" relative="1" as="geometry">
            <mxPoint x="505.5" y="312" as="sourcePoint" />
            <mxPoint x="490" y="320" as="targetPoint" />
          </mxGeometry>
        </mxCell>
        <mxCell id="IltljHVZWHLLgp4Dg02v-124" value="&lt;b style=&quot;font-size: 20px;&quot;&gt;1..*&lt;/b&gt;" style="edgeLabel;html=1;align=center;verticalAlign=middle;resizable=0;points=[];fontSize=20;labelBackgroundColor=none;" vertex="1" connectable="0" parent="WIyWlLk6GJQsqaUBKTNV-1">
          <mxGeometry x="346.05896697327404" y="-680.4979210247855" as="geometry">
            <mxPoint x="-750" y="3" as="offset" />
          </mxGeometry>
        </mxCell>
        <mxCell id="IltljHVZWHLLgp4Dg02v-125" value="&lt;font style=&quot;font-size: 20px;&quot;&gt;&lt;b&gt;1..1&lt;/b&gt;&lt;/font&gt;" style="edgeLabel;html=1;align=center;verticalAlign=middle;resizable=0;points=[];fontSize=14;labelBackgroundColor=none;" vertex="1" connectable="0" parent="WIyWlLk6GJQsqaUBKTNV-1">
          <mxGeometry x="-29.998058155948797" y="-706.9982387532532" as="geometry">
            <mxPoint x="-38" y="32" as="offset" />
          </mxGeometry>
        </mxCell>
        <mxCell id="IltljHVZWHLLgp4Dg02v-126" value="&lt;b style=&quot;font-size: 20px;&quot;&gt;1..1&lt;/b&gt;" style="edgeLabel;html=1;align=center;verticalAlign=middle;resizable=0;points=[];fontSize=20;labelBackgroundColor=none;" vertex="1" connectable="0" parent="WIyWlLk6GJQsqaUBKTNV-1">
          <mxGeometry x="370.0019418440512" y="439.0017612467468" as="geometry">
            <mxPoint x="7" as="offset" />
          </mxGeometry>
        </mxCell>
        <mxCell id="IltljHVZWHLLgp4Dg02v-127" value="&lt;b style=&quot;font-size: 20px;&quot;&gt;1..1&lt;/b&gt;" style="edgeLabel;html=1;align=center;verticalAlign=middle;resizable=0;points=[];fontSize=20;labelBackgroundColor=none;" vertex="1" connectable="0" parent="WIyWlLk6GJQsqaUBKTNV-1">
          <mxGeometry x="160.0019418440512" y="439.0017612467468" as="geometry">
            <mxPoint x="7" as="offset" />
          </mxGeometry>
        </mxCell>
        <mxCell id="IltljHVZWHLLgp4Dg02v-128" value="User" style="swimlane;fontStyle=1;align=center;verticalAlign=middle;childLayout=stackLayout;horizontal=1;startSize=26;horizontalStack=0;resizeParent=1;resizeParentMax=0;resizeLast=0;collapsible=1;marginBottom=0;fontSize=16;" vertex="1" parent="WIyWlLk6GJQsqaUBKTNV-1">
          <mxGeometry x="-39" y="-718" width="180" height="216" as="geometry" />
        </mxCell>
        <mxCell id="IltljHVZWHLLgp4Dg02v-129" value="- id: String" style="text;strokeColor=none;fillColor=none;align=left;verticalAlign=top;spacingLeft=4;spacingRight=4;overflow=hidden;rotatable=0;points=[[0,0.5],[1,0.5]];portConstraint=eastwest;fontSize=15;" vertex="1" parent="IltljHVZWHLLgp4Dg02v-128">
          <mxGeometry y="26" width="180" height="26" as="geometry" />
        </mxCell>
        <mxCell id="IltljHVZWHLLgp4Dg02v-130" value="- email: String" style="text;strokeColor=none;fillColor=none;align=left;verticalAlign=top;spacingLeft=4;spacingRight=4;overflow=hidden;rotatable=0;points=[[0,0.5],[1,0.5]];portConstraint=eastwest;fontSize=15;" vertex="1" parent="IltljHVZWHLLgp4Dg02v-128">
          <mxGeometry y="52" width="180" height="26" as="geometry" />
        </mxCell>
        <mxCell id="IltljHVZWHLLgp4Dg02v-131" value="- password: String" style="text;strokeColor=none;fillColor=none;align=left;verticalAlign=top;spacingLeft=4;spacingRight=4;overflow=hidden;rotatable=0;points=[[0,0.5],[1,0.5]];portConstraint=eastwest;fontSize=15;" vertex="1" parent="IltljHVZWHLLgp4Dg02v-128">
          <mxGeometry y="78" width="180" height="26" as="geometry" />
        </mxCell>
        <mxCell id="IltljHVZWHLLgp4Dg02v-132" value="- phone_number: String" style="text;strokeColor=none;fillColor=none;align=left;verticalAlign=top;spacingLeft=4;spacingRight=4;overflow=hidden;rotatable=0;points=[[0,0.5],[1,0.5]];portConstraint=eastwest;fontSize=15;" vertex="1" parent="IltljHVZWHLLgp4Dg02v-128">
          <mxGeometry y="104" width="180" height="26" as="geometry" />
        </mxCell>
        <mxCell id="IltljHVZWHLLgp4Dg02v-133" value="- address: String" style="text;strokeColor=none;fillColor=none;align=left;verticalAlign=top;spacingLeft=4;spacingRight=4;overflow=hidden;rotatable=0;points=[[0,0.5],[1,0.5]];portConstraint=eastwest;fontSize=15;" vertex="1" parent="IltljHVZWHLLgp4Dg02v-128">
          <mxGeometry y="130" width="180" height="26" as="geometry" />
        </mxCell>
        <mxCell id="IltljHVZWHLLgp4Dg02v-134" value="- sex: String" style="text;strokeColor=none;fillColor=none;align=left;verticalAlign=top;spacingLeft=4;spacingRight=4;overflow=hidden;rotatable=0;points=[[0,0.5],[1,0.5]];portConstraint=eastwest;fontSize=15;" vertex="1" parent="IltljHVZWHLLgp4Dg02v-128">
          <mxGeometry y="156" width="180" height="26" as="geometry" />
        </mxCell>
        <mxCell id="IltljHVZWHLLgp4Dg02v-135" value="" style="line;strokeWidth=1;fillColor=none;align=left;verticalAlign=middle;spacingTop=-1;spacingLeft=3;spacingRight=3;rotatable=0;labelPosition=right;points=[];portConstraint=eastwest;strokeColor=inherit;" vertex="1" parent="IltljHVZWHLLgp4Dg02v-128">
          <mxGeometry y="182" width="180" height="8" as="geometry" />
        </mxCell>
        <mxCell id="IltljHVZWHLLgp4Dg02v-136" value="Â " style="text;strokeColor=none;fillColor=none;align=left;verticalAlign=top;spacingLeft=4;spacingRight=4;overflow=hidden;rotatable=0;points=[[0,0.5],[1,0.5]];portConstraint=eastwest;fontSize=14;" vertex="1" parent="IltljHVZWHLLgp4Dg02v-128">
          <mxGeometry y="190" width="180" height="26" as="geometry" />
        </mxCell>
        <mxCell id="IltljHVZWHLLgp4Dg02v-137" value="&lt;b style=&quot;font-size: 20px;&quot;&gt;1..1&lt;/b&gt;" style="edgeLabel;html=1;align=center;verticalAlign=middle;resizable=0;points=[];fontSize=20;labelBackgroundColor=none;" vertex="1" connectable="0" parent="WIyWlLk6GJQsqaUBKTNV-1">
          <mxGeometry x="68.0019418440512" y="0.0017612467468097748" as="geometry">
            <mxPoint x="7" as="offset" />
          </mxGeometry>
        </mxCell>
        <mxCell id="IltljHVZWHLLgp4Dg02v-138" value="Blood_Supply" style="swimlane;fontStyle=1;align=center;verticalAlign=top;childLayout=stackLayout;horizontal=1;startSize=26;horizontalStack=0;resizeParent=1;resizeParentMax=0;resizeLast=0;collapsible=1;marginBottom=0;fontSize=14;" vertex="1" parent="WIyWlLk6GJQsqaUBKTNV-1">
          <mxGeometry x="400" y="-119" width="180" height="86" as="geometry" />
        </mxCell>
        <mxCell id="IltljHVZWHLLgp4Dg02v-139" value="- quantity_supplied: Float" style="text;strokeColor=none;fillColor=none;align=left;verticalAlign=top;spacingLeft=4;spacingRight=4;overflow=hidden;rotatable=0;points=[[0,0.5],[1,0.5]];portConstraint=eastwest;fontSize=15;" vertex="1" parent="IltljHVZWHLLgp4Dg02v-138">
          <mxGeometry y="26" width="180" height="26" as="geometry" />
        </mxCell>
        <mxCell id="IltljHVZWHLLgp4Dg02v-140" value="" style="line;strokeWidth=1;fillColor=none;align=left;verticalAlign=middle;spacingTop=-1;spacingLeft=3;spacingRight=3;rotatable=0;labelPosition=right;points=[];portConstraint=eastwest;strokeColor=inherit;" vertex="1" parent="IltljHVZWHLLgp4Dg02v-138">
          <mxGeometry y="52" width="180" height="8" as="geometry" />
        </mxCell>
        <mxCell id="IltljHVZWHLLgp4Dg02v-141" value="Â " style="text;strokeColor=none;fillColor=none;align=left;verticalAlign=top;spacingLeft=4;spacingRight=4;overflow=hidden;rotatable=0;points=[[0,0.5],[1,0.5]];portConstraint=eastwest;" vertex="1" parent="IltljHVZWHLLgp4Dg02v-138">
          <mxGeometry y="60" width="180" height="26" as="geometry" />
        </mxCell>
        <mxCell id="IltljHVZWHLLgp4Dg02v-142" value="" style="edgeStyle=orthogonalEdgeStyle;orthogonalLoop=1;jettySize=auto;html=1;rounded=0;endArrow=none;startSize=14;endSize=14;sourcePerimeterSpacing=8;targetPerimeterSpacing=8;endFill=0;strokeWidth=2;" edge="1" parent="WIyWlLk6GJQsqaUBKTNV-1">
          <mxGeometry width="140" relative="1" as="geometry">
            <mxPoint x="-90" y="-660" as="sourcePoint" />
            <mxPoint x="-39" y="-625" as="targetPoint" />
            <Array as="points">
              <mxPoint x="-90" y="-660" />
              <mxPoint x="-90" y="-625" />
            </Array>
          </mxGeometry>
        </mxCell>
        <mxCell id="IltljHVZWHLLgp4Dg02v-143" value="Hospital_Manager" style="text;strokeColor=none;fillColor=none;html=1;align=center;verticalAlign=middle;whiteSpace=wrap;rounded=0;" vertex="1" parent="WIyWlLk6GJQsqaUBKTNV-1">
          <mxGeometry x="-140" y="-625" width="60" height="30" as="geometry" />
        </mxCell>
        <mxCell id="IltljHVZWHLLgp4Dg02v-144" value="Blood_Bank_Manager" style="text;strokeColor=none;fillColor=none;html=1;align=center;verticalAlign=middle;whiteSpace=wrap;rounded=0;" vertex="1" parent="WIyWlLk6GJQsqaUBKTNV-1">
          <mxGeometry x="-140" y="-595" width="60" height="30" as="geometry" />
        </mxCell>
      </root>
    </mxGraphModel>
  </diagram>
</mxfile>
